<svg height="512" viewBox="0 0 60 60" width="512" xmlns="http://www.w3.org/2000/svg"><g id="Page-1" fill="none" fill-rule="evenodd"><g id="006---Platform-Barrier" fill="rgb(255,255,255)" fill-rule="nonzero"><path id="Shape" d="m45.5 17c4.136 0 7.5-2.691 7.5-6s-3.364-6-7.5-6-7.5 2.691-7.5 6 3.364 6 7.5 6zm0-10c3.032 0 5.5 1.794 5.5 4s-2.468 4-5.5 4-5.5-1.794-5.5-4 2.468-4 5.5-4z"/><path id="Shape" d="m41 21c-.5522847 0-1 .4477153-1 1s.4477153 1 1 1h9c.5522847 0 1-.4477153 1-1s-.4477153-1-1-1z"/><path id="Shape" d="m49 42c0-.5522847-.4477153-1-1-1h-5.586l9.293-9.293c.3789722-.3923789.3735524-1.0160848-.0121814-1.4018186s-1.0094397-.3911536-1.4018186-.0121814l-9.293 9.293v-5.586c0-.5522847-.4477153-1-1-1s-1 .4477153-1 1v8c0 .5522847.4477153 1 1 1h8c.5522847 0 1-.4477153 1-1z"/><path id="Shape" d="m58 53v-40.5c-.0000001-6.90355927-5.5964407-12.49999974-12.5-12.49999974s-12.4999999 5.59644047-12.5 12.49999974v.551c-3.9775565.4058851-7.3334254 3.1368761-8.539 6.949h-21.461c-.79169411-.0059317-1.55195434.3094302-2.107.874-.5752473.5571583-.89784564 1.3251808-.893 2.126 0 1.6568542 1.34314575 3 3 3h15.938l-14.732 6.1c-1.1195741.4642197-1.84849888 1.5580017-1.846 2.77.00161836.391195.07798839.7784759.225 1.141.4668743 1.1226285 1.56516841 1.852455 2.781 1.848.39329304-.0000489.78283498-.0764629 1.147-.225l14.707-6.088-11.258 11.254c-.75704581.7570458-1.05270587 1.8604641-.77560788 2.8946079.27709799 1.0341437 1.08485628 1.841902 2.11899998 2.119 1.0341438.277098 2.1375621-.0185621 2.8946079-.7756079l15.183-15.177c1.1246696.5914329 2.352682.9608212 3.617 1.088v20.051c-1.1045695 0-2 .8954305-2 2v3c0 1.1045695.8954305 2 2 2h25c1.1045695 0 2-.8954305 2-2v-3c0-1.1045695-.8954305-2-2-2zm-55-29c-.55228475 0-1-.4477153-1-1-.00039544-.2693445.11030803-.526929.306-.712.18239634-.1865985.43307757-.2906276.694-.288h21.051c-.0336765.3322734-.0506978.6660245-.051 1 0 .3.019.594.045.887l-.274.113zm2.753 11.784c-.50786248.2154372-1.0944874-.0183206-1.315-.524-.04948109-.1241807-.07591305-.2563405-.078-.39-.00158323-.4041857.24030445-.7695821.613-.926l19.367-8.019.089-.036c.1927195.6375791.4486572 1.2543086.764 1.841l-.089.038c-.0299326.0119798-.0590018.0260132-.087.042zm7.025 9.843c-.2490773.2636609-.6219938.370721-.9730004.2793373s-.6243718-.3667016-.713255-.7183497c-.0888831-.3516481.0208284-.7237931.2862554-.9709876l14.681-14.681.282-.118c.4035199.4803672.8504056.9225665 1.335 1.321zm13.222-22.627c.0066935-4.0278958 3.004135-7.423997 7-7.931v15.862c-3.995865-.507003-6.9933065-3.9031042-7-7.931zm32 35h-25v-3h5c.5522847 0 1-.4477153 1-1s-.4477153-1-1-1h-3v-40.5c0-5.79898987 4.7010101-10.5 10.5-10.5s10.5 4.70101013 10.5 10.5v40.5h-13c-.5522847 0-1 .4477153-1 1s.4477153 1 1 1h15z"/></g></g></svg>